# xmcd
#
# Track frame offsets:
#	150
#	6086
#	29340
#	51269
#	68414
#	86226
#	117746
#	143525
#	169996
#	204768
#	238699
#	258112
#	288873
#
# Disc length: 4330 seconds
#
# Revision: 1
# Processed by: cddbd v1.5.1PL0 Copyright (c) Steve Scherf et al.
# Submitted via: CDmax 2.0
#
DISCID=ae10e80d
DTITLE=Hot Tuna - Live in Somerville, MA - 11.26.99 - d1
DYEAR=1999
DGENRE=Blues
TTITLE0=Intro
TTITLE1=Fools Blues
TTITLE2=How Long Blues
TTITLE3=Been So Long
TTITLE4=Do Not Go Gentle
TTITLE5=I See The Light
TTITLE6=Hesitation Blues
TTITLE7=Walkin' Blues
TTITLE8=Gypsy Fire
TTITLE9=99 Year Blues
TTITLE10=Another Man Done Gone ->
TTITLE11=Parchman Farm
TTITLE12=Bar Room Crystal Ball
EXTD=11-26-99\nSomerville Theatre, Somerville, MA \nw/Michael Falzarano, Pet
EXTD=e Sears, Harvey Sorgen\nOpening Act: Derek Trucks Band\n*w/Derek Trucks\
EXTD=n\nElectric: \nFools Blues\nHow Long Blues\nBeen So Long\nDo Not Go Gent
EXTD=le\nI See The Light\nHesitation Blues\nWalkin' Blues\nGypsy Fire\n99 Yea
EXTD=r Blues\nAnother Man Done Gone ->\nParchman Farm\nBar Room Crystal Ball\
EXTD=nWater Song\nI Can't Be Satisfied\nAK-47*\nBig Boss Man*\nHit Single #1\
EXTD=nOde For Billy Dean\nBowlegged Woman, Knock Kneed Man\nFunky #7\nGoin' D
EXTD=own The The Road Feelin' Bad\n\nFrom Tunabase
EXTT0=
EXTT1=
EXTT2=
EXTT3=
EXTT4=
EXTT5=
EXTT6=
EXTT7=
EXTT8=
EXTT9=
EXTT10=
EXTT11=
EXTT12=
PLAYORDER=
